<mxfile host="app.diagrams.net" modified="2024-05-18T07:23:20.139Z" agent="Mozilla/5.0 (Macintosh; Intel Mac OS X 10_15_7) AppleWebKit/537.36 (KHTML, like Gecko) Chrome/124.0.0.0 Safari/537.36" etag="P2PMPulPNKkUeKdejrrz" scale="1" border="2" version="24.2.0" type="github">
  <diagram name="Page-1" id="Nv02xrtBGk38XoyNXm0f">
    <mxGraphModel dx="1900" dy="2103" grid="1" gridSize="10" guides="1" tooltips="1" connect="1" arrows="1" fold="1" page="0" pageScale="1" pageWidth="827" pageHeight="1169" math="0" shadow="0">
      <root>
        <mxCell id="0" />
        <mxCell id="1" parent="0" />
        <mxCell id="7rJVukeMiSts9HQJEXAv-21" value="" style="rounded=0;whiteSpace=wrap;html=1;" parent="1" vertex="1">
          <mxGeometry x="-267" y="300" width="399" height="300" as="geometry" />
        </mxCell>
        <mxCell id="7rJVukeMiSts9HQJEXAv-29" value="Constituency" style="text;html=1;align=center;verticalAlign=middle;resizable=0;points=[];autosize=1;strokeColor=none;fillColor=none;fontSize=16;rotation=0;" parent="1" vertex="1">
          <mxGeometry x="20.5" y="300" width="110" height="31" as="geometry" />
        </mxCell>
        <mxCell id="7rJVukeMiSts9HQJEXAv-31" value="Parliamentary" style="text;html=1;align=center;verticalAlign=middle;resizable=0;points=[];autosize=1;strokeColor=none;fillColor=none;fontSize=16;rotation=-90;" parent="1" vertex="1">
          <mxGeometry x="-343" y="434.5" width="117" height="31" as="geometry" />
        </mxCell>
        <mxCell id="7rJVukeMiSts9HQJEXAv-49" value="" style="group" parent="1" vertex="1" connectable="0">
          <mxGeometry x="-69" y="465" width="150.5" height="60" as="geometry" />
        </mxCell>
        <mxCell id="7rJVukeMiSts9HQJEXAv-50" value="LG&lt;span style=&quot;background-color: initial;&quot;&gt;A&lt;/span&gt;" style="rounded=0;whiteSpace=wrap;html=1;" parent="7rJVukeMiSts9HQJEXAv-49" vertex="1">
          <mxGeometry x="30.5" width="120" height="60" as="geometry" />
        </mxCell>
        <mxCell id="7rJVukeMiSts9HQJEXAv-51" value="Mayor" style="text;html=1;align=center;verticalAlign=middle;whiteSpace=wrap;rounded=0;fontSize=16;rotation=-90;" parent="7rJVukeMiSts9HQJEXAv-49" vertex="1">
          <mxGeometry x="-15" y="15" width="60" height="30" as="geometry" />
        </mxCell>
        <mxCell id="7rJVukeMiSts9HQJEXAv-44" value="" style="group" parent="1" vertex="1" connectable="0">
          <mxGeometry x="-233" y="465" width="150.5" height="60" as="geometry" />
        </mxCell>
        <mxCell id="7rJVukeMiSts9HQJEXAv-17" value="LG&lt;span style=&quot;background-color: initial;&quot;&gt;A&lt;/span&gt;" style="rounded=0;whiteSpace=wrap;html=1;" parent="7rJVukeMiSts9HQJEXAv-44" vertex="1">
          <mxGeometry x="30.5" width="120" height="60" as="geometry" />
        </mxCell>
        <mxCell id="7rJVukeMiSts9HQJEXAv-38" value="Mayor" style="text;html=1;align=center;verticalAlign=middle;whiteSpace=wrap;rounded=0;fontSize=16;rotation=-90;" parent="7rJVukeMiSts9HQJEXAv-44" vertex="1">
          <mxGeometry x="-15" y="15" width="60" height="30" as="geometry" />
        </mxCell>
        <mxCell id="7rJVukeMiSts9HQJEXAv-14" style="edgeStyle=orthogonalEdgeStyle;rounded=0;orthogonalLoop=1;jettySize=auto;html=1;exitX=0.5;exitY=1;exitDx=0;exitDy=0;entryX=0.5;entryY=0;entryDx=0;entryDy=0;fontSize=12;startSize=8;endSize=8;" parent="1" source="7rJVukeMiSts9HQJEXAv-12" target="7rJVukeMiSts9HQJEXAv-13" edge="1">
          <mxGeometry relative="1" as="geometry" />
        </mxCell>
        <mxCell id="7rJVukeMiSts9HQJEXAv-18" style="edgeStyle=orthogonalEdgeStyle;rounded=0;orthogonalLoop=1;jettySize=auto;html=1;exitX=0.5;exitY=1;exitDx=0;exitDy=0;entryX=0.5;entryY=0;entryDx=0;entryDy=0;fontSize=12;startSize=8;endSize=8;" parent="1" source="7rJVukeMiSts9HQJEXAv-13" target="7rJVukeMiSts9HQJEXAv-17" edge="1">
          <mxGeometry relative="1" as="geometry" />
        </mxCell>
        <mxCell id="7rJVukeMiSts9HQJEXAv-20" style="edgeStyle=orthogonalEdgeStyle;rounded=0;orthogonalLoop=1;jettySize=auto;html=1;entryX=0.5;entryY=0;entryDx=0;entryDy=0;fontSize=12;startSize=8;endSize=8;" parent="1" source="7rJVukeMiSts9HQJEXAv-13" target="7rJVukeMiSts9HQJEXAv-50" edge="1">
          <mxGeometry relative="1" as="geometry">
            <mxPoint x="22.5" y="423" as="targetPoint" />
          </mxGeometry>
        </mxCell>
        <mxCell id="7rJVukeMiSts9HQJEXAv-22" style="edgeStyle=orthogonalEdgeStyle;rounded=0;orthogonalLoop=1;jettySize=auto;html=1;exitX=0.5;exitY=1;exitDx=0;exitDy=0;fontSize=12;startSize=8;endSize=8;" parent="1" source="7rJVukeMiSts9HQJEXAv-17" target="7rJVukeMiSts9HQJEXAv-23" edge="1">
          <mxGeometry relative="1" as="geometry">
            <mxPoint x="-133.76470588235293" y="581.1764705882354" as="targetPoint" />
          </mxGeometry>
        </mxCell>
        <mxCell id="7rJVukeMiSts9HQJEXAv-25" style="edgeStyle=orthogonalEdgeStyle;rounded=0;orthogonalLoop=1;jettySize=auto;html=1;exitX=0.5;exitY=1;exitDx=0;exitDy=0;fontSize=12;startSize=8;endSize=8;entryX=0.5;entryY=0;entryDx=0;entryDy=0;" parent="1" source="7rJVukeMiSts9HQJEXAv-17" target="7rJVukeMiSts9HQJEXAv-53" edge="1">
          <mxGeometry relative="1" as="geometry">
            <mxPoint x="-60" y="590" as="targetPoint" />
          </mxGeometry>
        </mxCell>
        <mxCell id="7rJVukeMiSts9HQJEXAv-28" style="edgeStyle=orthogonalEdgeStyle;rounded=0;orthogonalLoop=1;jettySize=auto;html=1;exitX=0.5;exitY=1;exitDx=0;exitDy=0;entryX=0.5;entryY=0;entryDx=0;entryDy=0;fontSize=12;startSize=8;endSize=8;" parent="1" source="7rJVukeMiSts9HQJEXAv-17" target="7rJVukeMiSts9HQJEXAv-56" edge="1">
          <mxGeometry relative="1" as="geometry">
            <mxPoint x="78" y="583.9999999999998" as="targetPoint" />
          </mxGeometry>
        </mxCell>
        <mxCell id="7rJVukeMiSts9HQJEXAv-41" value="" style="group" parent="1" vertex="1" connectable="0">
          <mxGeometry x="-149.5" y="40" width="150.5" height="86" as="geometry" />
        </mxCell>
        <mxCell id="7rJVukeMiSts9HQJEXAv-12" value="Country Area" style="rounded=0;whiteSpace=wrap;html=1;" parent="7rJVukeMiSts9HQJEXAv-41" vertex="1">
          <mxGeometry x="30.5" y="13" width="120" height="60" as="geometry" />
        </mxCell>
        <mxCell id="7rJVukeMiSts9HQJEXAv-32" value="President" style="text;html=1;align=center;verticalAlign=middle;resizable=0;points=[];autosize=1;strokeColor=none;fillColor=none;fontSize=16;rotation=-90;" parent="7rJVukeMiSts9HQJEXAv-41" vertex="1">
          <mxGeometry x="-27.5" y="27.5" width="86" height="31" as="geometry" />
        </mxCell>
        <mxCell id="7rJVukeMiSts9HQJEXAv-42" value="" style="group" parent="1" vertex="1" connectable="0">
          <mxGeometry x="-320" y="740" width="151" height="60" as="geometry" />
        </mxCell>
        <mxCell id="7rJVukeMiSts9HQJEXAv-23" value="Polling Station" style="whiteSpace=wrap;html=1;" parent="7rJVukeMiSts9HQJEXAv-42" vertex="1">
          <mxGeometry x="31" width="120" height="60" as="geometry" />
        </mxCell>
        <mxCell id="7rJVukeMiSts9HQJEXAv-40" value="PCO" style="text;html=1;align=center;verticalAlign=middle;resizable=0;points=[];autosize=1;strokeColor=none;fillColor=none;fontSize=16;rotation=-90;" parent="7rJVukeMiSts9HQJEXAv-42" vertex="1">
          <mxGeometry x="-11" y="14.5" width="53" height="31" as="geometry" />
        </mxCell>
        <mxCell id="7rJVukeMiSts9HQJEXAv-45" value="" style="group" parent="1" vertex="1" connectable="0">
          <mxGeometry x="-152" y="160" width="153" height="85" as="geometry" />
        </mxCell>
        <mxCell id="7rJVukeMiSts9HQJEXAv-13" value="AA" style="whiteSpace=wrap;html=1;" parent="7rJVukeMiSts9HQJEXAv-45" vertex="1">
          <mxGeometry x="33" y="12.5" width="120" height="60" as="geometry" />
        </mxCell>
        <mxCell id="7rJVukeMiSts9HQJEXAv-30" value="Governor" style="text;html=1;align=center;verticalAlign=middle;resizable=0;points=[];autosize=1;strokeColor=none;fillColor=none;fontSize=16;rotation=-90;" parent="7rJVukeMiSts9HQJEXAv-45" vertex="1">
          <mxGeometry x="-27" y="27" width="85" height="31" as="geometry" />
        </mxCell>
        <mxCell id="7rJVukeMiSts9HQJEXAv-52" value="" style="group" parent="1" vertex="1" connectable="0">
          <mxGeometry x="-159.5" y="740" width="151" height="60" as="geometry" />
        </mxCell>
        <mxCell id="7rJVukeMiSts9HQJEXAv-53" value="Polling Station" style="whiteSpace=wrap;html=1;" parent="7rJVukeMiSts9HQJEXAv-52" vertex="1">
          <mxGeometry x="31" width="120" height="60" as="geometry" />
        </mxCell>
        <mxCell id="7rJVukeMiSts9HQJEXAv-54" value="PCO" style="text;html=1;align=center;verticalAlign=middle;resizable=0;points=[];autosize=1;strokeColor=none;fillColor=none;fontSize=16;rotation=-90;" parent="7rJVukeMiSts9HQJEXAv-52" vertex="1">
          <mxGeometry x="-11" y="14.5" width="53" height="31" as="geometry" />
        </mxCell>
        <mxCell id="7rJVukeMiSts9HQJEXAv-55" value="" style="group" parent="1" vertex="1" connectable="0">
          <mxGeometry y="740" width="151" height="60" as="geometry" />
        </mxCell>
        <mxCell id="7rJVukeMiSts9HQJEXAv-56" value="Polling Station" style="whiteSpace=wrap;html=1;" parent="7rJVukeMiSts9HQJEXAv-55" vertex="1">
          <mxGeometry x="31" width="120" height="60" as="geometry" />
        </mxCell>
        <mxCell id="7rJVukeMiSts9HQJEXAv-57" value="PCO" style="text;html=1;align=center;verticalAlign=middle;resizable=0;points=[];autosize=1;strokeColor=none;fillColor=none;fontSize=16;rotation=-90;" parent="7rJVukeMiSts9HQJEXAv-55" vertex="1">
          <mxGeometry x="-11" y="14.5" width="53" height="31" as="geometry" />
        </mxCell>
        <mxCell id="7rJVukeMiSts9HQJEXAv-58" value="&lt;p style=&quot;margin:0px;margin-top:4px;text-align:center;&quot;&gt;&lt;b&gt;areas.AbstractArea&lt;/b&gt;&lt;/p&gt;&lt;hr size=&quot;1&quot;/&gt;&lt;p style=&quot;margin:0 0 0 4px;line-height:1.6;&quot;&gt; name: &lt;/p&gt;&lt;hr size=&quot;1&quot;/&gt;&lt;p style=&quot;margin:0 0 0 4px;line-height:1.6;&quot;&gt; candidates(self): &lt;/p&gt;" style="verticalAlign=top;align=left;overflow=fill;fontSize=14;fontFamily=Helvetica;html=1;rounded=0;shadow=0;comic=0;labelBackgroundColor=none;strokeWidth=1;" parent="1" vertex="1">
          <mxGeometry x="1003" y="410" width="177" height="100" as="geometry" />
        </mxCell>
        <mxCell id="7rJVukeMiSts9HQJEXAv-59" value="&lt;p style=&quot;margin:0px;margin-top:4px;text-align:center;&quot;&gt;&lt;b&gt;areas.AdministrativeArea&lt;/b&gt;&lt;/p&gt;&lt;hr size=&quot;1&quot;&gt;&lt;p style=&quot;margin:0 0 0 4px;line-height:1.6;&quot;&gt;_country_area: &lt;/p&gt;&lt;hr size=&quot;1&quot;&gt;&lt;p style=&quot;margin:0 0 0 4px;line-height:1.6;&quot;&gt; country_area(self): &lt;br&gt; country_area(self, country_area: CountryArea): &lt;br&gt; add_child(self, child: LocalGovernmentArea): &lt;/p&gt;" style="verticalAlign=top;align=left;overflow=fill;fontSize=14;fontFamily=Helvetica;html=1;rounded=0;shadow=0;comic=0;labelBackgroundColor=none;strokeWidth=1;" parent="1" vertex="1">
          <mxGeometry x="284" y="140" width="316" height="142" as="geometry" />
        </mxCell>
        <mxCell id="7rJVukeMiSts9HQJEXAv-60" value="&lt;p style=&quot;margin:0px;margin-top:4px;text-align:center;&quot;&gt;&lt;b&gt;areas.Constituency&lt;/b&gt;&lt;/p&gt;&lt;hr size=&quot;1&quot;/&gt;&lt;p style=&quot;margin:0 0 0 4px;line-height:1.6;&quot;&gt; add_child(self, child: LocalGovernmentArea): &lt;/p&gt;" style="verticalAlign=top;align=left;overflow=fill;fontSize=14;fontFamily=Helvetica;html=1;rounded=0;shadow=0;comic=0;labelBackgroundColor=none;strokeWidth=1;" parent="1" vertex="1">
          <mxGeometry x="290" y="300" width="304" height="57" as="geometry" />
        </mxCell>
        <mxCell id="7rJVukeMiSts9HQJEXAv-61" value="&lt;p style=&quot;margin:0px;margin-top:4px;text-align:center;&quot;&gt;&lt;b&gt;areas.CountryArea&lt;/b&gt;&lt;/p&gt;&lt;hr size=&quot;1&quot;/&gt;&lt;p style=&quot;margin:0 0 0 4px;line-height:1.6;&quot;&gt; add_child(self, child: AdministrativeArea): &lt;/p&gt;" style="verticalAlign=top;align=left;overflow=fill;fontSize=14;fontFamily=Helvetica;html=1;rounded=0;shadow=0;comic=0;labelBackgroundColor=none;strokeWidth=1;" parent="1" vertex="1">
          <mxGeometry x="300" y="62" width="284" height="57" as="geometry" />
        </mxCell>
        <mxCell id="7rJVukeMiSts9HQJEXAv-62" value="&lt;p style=&quot;margin:0px;margin-top:4px;text-align:center;&quot;&gt;&lt;b&gt;areas.HierarchicalAreaNode&lt;/b&gt;&lt;/p&gt;&lt;hr size=&quot;1&quot;/&gt;&lt;p style=&quot;margin:0 0 0 4px;line-height:1.6;&quot;&gt; area_registry_instance: &lt;/p&gt;&lt;hr size=&quot;1&quot;/&gt;&lt;p style=&quot;margin:0 0 0 4px;line-height:1.6;&quot;&gt; __post_init__(self): &lt;br/&gt; candidates(self): &lt;br/&gt; add_child(self, child: AbstractArea): &lt;/p&gt;" style="verticalAlign=top;align=left;overflow=fill;fontSize=14;fontFamily=Helvetica;html=1;rounded=0;shadow=0;comic=0;labelBackgroundColor=none;strokeWidth=1;" parent="1" vertex="1">
          <mxGeometry x="704" y="205" width="249" height="145" as="geometry" />
        </mxCell>
        <mxCell id="7rJVukeMiSts9HQJEXAv-63" value="&lt;p style=&quot;margin:0px;margin-top:4px;text-align:center;&quot;&gt;&lt;b&gt;areas.LocalGovernmentArea&lt;/b&gt;&lt;/p&gt;&lt;hr size=&quot;1&quot;&gt;&lt;p style=&quot;margin:0 0 0 4px;line-height:1.6;&quot;&gt; _constituency:&lt;br&gt; _administrative_area: &lt;/p&gt;&lt;hr size=&quot;1&quot;&gt;&lt;p style=&quot;margin:0 0 0 4px;line-height:1.6;&quot;&gt; constituency(self): &lt;br&gt; constituency(self, constituency: Constituency): &lt;br&gt; administrative_area(self): &lt;br&gt; administrative_area(self, administrative_area: AdministrativeArea): &lt;br&gt; add_child(self, child: PollingStation): &lt;/p&gt;" style="verticalAlign=top;align=left;overflow=fill;fontSize=14;fontFamily=Helvetica;html=1;rounded=0;shadow=0;comic=0;labelBackgroundColor=none;strokeWidth=1;" parent="1" vertex="1">
          <mxGeometry x="230" y="380" width="424" height="220" as="geometry" />
        </mxCell>
        <mxCell id="7rJVukeMiSts9HQJEXAv-64" value="&lt;p style=&quot;margin:0px;margin-top:4px;text-align:center;&quot;&gt;&lt;b&gt;areas.PollingStation&lt;/b&gt;&lt;/p&gt;&lt;hr size=&quot;1&quot;/&gt;&lt;p style=&quot;margin:0 0 0 4px;line-height:1.6;&quot;&gt; pco: &lt;br/&gt; already_voted: &lt;br/&gt; parent: &lt;/p&gt;&lt;hr size=&quot;1&quot;/&gt;&lt;p style=&quot;margin:0 0 0 4px;line-height:1.6;&quot;&gt; __post_init__(self): &lt;br/&gt; from_metadata(cls, metadata): &lt;br/&gt; get_metadata(self): &lt;br/&gt; get_ballot(self): &lt;br/&gt; vote(self, voter: Voter): &lt;/p&gt;" style="verticalAlign=top;align=left;overflow=fill;fontSize=14;fontFamily=Helvetica;html=1;rounded=0;shadow=0;comic=0;labelBackgroundColor=none;strokeWidth=1;" parent="1" vertex="1">
          <mxGeometry x="320" y="639" width="219" height="231" as="geometry" />
        </mxCell>
        <mxCell id="7rJVukeMiSts9HQJEXAv-65" value="&lt;p style=&quot;margin:0px;margin-top:4px;text-align:center;&quot;&gt;&lt;b&gt;areas.TerminalAreaNode&lt;/b&gt;&lt;/p&gt;&lt;hr size=&quot;1&quot;/&gt;&lt;p style=&quot;margin:0 0 0 4px;line-height:1.6;&quot;&gt; parent: &lt;/p&gt;&lt;hr size=&quot;1&quot;/&gt;&lt;p style=&quot;margin:0 0 0 4px;line-height:1.6;&quot;&gt; get_mp_candidates(self): &lt;br/&gt; get_mayor_candidates(self): &lt;br/&gt; get_governorship_candidates(self): &lt;br/&gt; get_presidential_candidates(self): &lt;br/&gt; candidates(self): &lt;/p&gt;" style="verticalAlign=top;align=left;overflow=fill;fontSize=14;fontFamily=Helvetica;html=1;rounded=0;shadow=0;comic=0;labelBackgroundColor=none;strokeWidth=1;" parent="1" vertex="1">
          <mxGeometry x="704" y="660.5" width="248" height="188" as="geometry" />
        </mxCell>
        <mxCell id="7rJVukeMiSts9HQJEXAv-66" value="" style="html=1;rounded=1;edgeStyle=orthogonalEdgeStyle;dashed=0;startArrow=block;startSize=12;endArrow=none;strokeColor=#595959;entryX=0.000;entryY=0.500;entryDx=0;entryDy=0;" parent="1" source="7rJVukeMiSts9HQJEXAv-59" target="7rJVukeMiSts9HQJEXAv-62" edge="1">
          <mxGeometry width="50" height="50" relative="1" as="geometry">
            <Array as="points">
              <mxPoint x="679" y="206" />
              <mxPoint x="679" y="265" />
              <mxPoint x="704" y="265" />
            </Array>
          </mxGeometry>
        </mxCell>
        <mxCell id="7rJVukeMiSts9HQJEXAv-67" value="" style="html=1;rounded=1;edgeStyle=orthogonalEdgeStyle;dashed=0;startArrow=block;startSize=12;endArrow=none;strokeColor=#595959;entryX=0.000;entryY=0.500;entryDx=0;entryDy=0;" parent="1" source="7rJVukeMiSts9HQJEXAv-60" target="7rJVukeMiSts9HQJEXAv-62" edge="1">
          <mxGeometry width="50" height="50" relative="1" as="geometry">
            <Array as="points">
              <mxPoint x="679" y="324" />
              <mxPoint x="679" y="265" />
              <mxPoint x="704" y="265" />
            </Array>
          </mxGeometry>
        </mxCell>
        <mxCell id="7rJVukeMiSts9HQJEXAv-68" value="" style="html=1;rounded=1;edgeStyle=orthogonalEdgeStyle;dashed=0;startArrow=block;startSize=12;endArrow=none;strokeColor=#595959;entryX=0.000;entryY=0.500;entryDx=0;entryDy=0;" parent="1" source="7rJVukeMiSts9HQJEXAv-61" target="7rJVukeMiSts9HQJEXAv-62" edge="1">
          <mxGeometry width="50" height="50" relative="1" as="geometry">
            <Array as="points">
              <mxPoint x="610" y="90" />
              <mxPoint x="679" y="90" />
              <mxPoint x="679" y="265" />
              <mxPoint x="704" y="265" />
            </Array>
            <mxPoint x="580" y="90" as="sourcePoint" />
          </mxGeometry>
        </mxCell>
        <mxCell id="7rJVukeMiSts9HQJEXAv-69" value="" style="html=1;rounded=1;edgeStyle=orthogonalEdgeStyle;dashed=0;startArrow=block;startSize=12;endArrow=none;strokeColor=#595959;exitX=1.000;exitY=0.500;exitDx=0;exitDy=0;entryX=0.000;entryY=0.500;entryDx=0;entryDy=0;" parent="1" source="7rJVukeMiSts9HQJEXAv-62" target="7rJVukeMiSts9HQJEXAv-58" edge="1">
          <mxGeometry width="50" height="50" relative="1" as="geometry">
            <Array as="points">
              <mxPoint x="978" y="278" />
              <mxPoint x="978" y="452" />
              <mxPoint x="1003" y="452" />
            </Array>
          </mxGeometry>
        </mxCell>
        <mxCell id="7rJVukeMiSts9HQJEXAv-70" value="" style="html=1;rounded=1;edgeStyle=orthogonalEdgeStyle;dashed=0;startArrow=block;startSize=12;endArrow=none;strokeColor=#595959;entryX=0.000;entryY=0.500;entryDx=0;entryDy=0;" parent="1" target="7rJVukeMiSts9HQJEXAv-62" edge="1">
          <mxGeometry width="50" height="50" relative="1" as="geometry">
            <Array as="points">
              <mxPoint x="654" y="500" />
              <mxPoint x="679" y="500" />
              <mxPoint x="679" y="265" />
              <mxPoint x="704" y="265" />
            </Array>
            <mxPoint x="654" y="500" as="sourcePoint" />
          </mxGeometry>
        </mxCell>
        <mxCell id="7rJVukeMiSts9HQJEXAv-71" value="" style="html=1;rounded=1;edgeStyle=orthogonalEdgeStyle;dashed=0;startArrow=block;startSize=12;endArrow=none;strokeColor=#595959;exitX=1.000;exitY=0.500;exitDx=0;exitDy=0;entryX=0.000;entryY=0.500;entryDx=0;entryDy=0;" parent="1" source="7rJVukeMiSts9HQJEXAv-64" target="7rJVukeMiSts9HQJEXAv-65" edge="1">
          <mxGeometry width="50" height="50" relative="1" as="geometry">
            <Array as="points" />
          </mxGeometry>
        </mxCell>
        <mxCell id="7rJVukeMiSts9HQJEXAv-72" value="" style="html=1;rounded=1;edgeStyle=orthogonalEdgeStyle;dashed=0;startArrow=block;startSize=12;endArrow=none;strokeColor=#595959;exitX=1.000;exitY=0.500;exitDx=0;exitDy=0;entryX=0.000;entryY=0.500;entryDx=0;entryDy=0;" parent="1" source="7rJVukeMiSts9HQJEXAv-65" target="7rJVukeMiSts9HQJEXAv-58" edge="1">
          <mxGeometry width="50" height="50" relative="1" as="geometry">
            <Array as="points">
              <mxPoint x="978" y="754" />
              <mxPoint x="978" y="452" />
              <mxPoint x="1003" y="452" />
            </Array>
          </mxGeometry>
        </mxCell>
        <mxCell id="MwLRmdAzHChFGPUT7Oti-8" style="edgeStyle=orthogonalEdgeStyle;rounded=0;orthogonalLoop=1;jettySize=auto;html=1;entryX=0;entryY=0.75;entryDx=0;entryDy=0;startArrow=classic;startFill=1;endArrow=none;endFill=0;" edge="1" parent="1" source="MwLRmdAzHChFGPUT7Oti-2" target="MwLRmdAzHChFGPUT7Oti-5">
          <mxGeometry relative="1" as="geometry" />
        </mxCell>
        <mxCell id="MwLRmdAzHChFGPUT7Oti-9" value="&amp;lt;&amp;lt; Uses &amp;gt;&amp;gt;" style="edgeLabel;html=1;align=center;verticalAlign=middle;resizable=0;points=[];" vertex="1" connectable="0" parent="MwLRmdAzHChFGPUT7Oti-8">
          <mxGeometry x="-0.0462" y="-3" relative="1" as="geometry">
            <mxPoint as="offset" />
          </mxGeometry>
        </mxCell>
        <mxCell id="MwLRmdAzHChFGPUT7Oti-2" value="&lt;p style=&quot;margin:0px;margin-top:4px;text-align:center;&quot;&gt;&lt;b&gt;authentication.AuthenticationStrategy&lt;/b&gt;&lt;/p&gt;&lt;hr size=&quot;1&quot;/&gt;&lt;p style=&quot;margin:0 0 0 4px;line-height:1.6;&quot;&gt; authenticate(self): &lt;/p&gt;" style="verticalAlign=top;align=left;overflow=fill;fontSize=14;fontFamily=Helvetica;html=1;rounded=0;shadow=0;comic=0;labelBackgroundColor=none;strokeWidth=1;" vertex="1" parent="1">
          <mxGeometry x="72" y="1340" width="315" height="57" as="geometry" />
        </mxCell>
        <mxCell id="MwLRmdAzHChFGPUT7Oti-3" value="&lt;p style=&quot;margin:0px;margin-top:4px;text-align:center;&quot;&gt;&lt;b&gt;authentication.NationalInsuranceNumber&lt;/b&gt;&lt;/p&gt;&lt;hr size=&quot;1&quot;/&gt;&lt;p style=&quot;margin:0 0 0 4px;line-height:1.6;&quot;&gt; ni_number: &lt;/p&gt;&lt;hr size=&quot;1&quot;/&gt;&lt;p style=&quot;margin:0 0 0 4px;line-height:1.6;&quot;&gt; authenticate(self): &lt;/p&gt;" style="verticalAlign=top;align=left;overflow=fill;fontSize=14;fontFamily=Helvetica;html=1;rounded=0;shadow=0;comic=0;labelBackgroundColor=none;strokeWidth=1;" vertex="1" parent="1">
          <mxGeometry x="-106" y="1560" width="337" height="100" as="geometry" />
        </mxCell>
        <mxCell id="MwLRmdAzHChFGPUT7Oti-4" value="&lt;p style=&quot;margin:0px;margin-top:4px;text-align:center;&quot;&gt;&lt;b&gt;authentication.VoterIDCard&lt;/b&gt;&lt;/p&gt;&lt;hr size=&quot;1&quot;/&gt;&lt;p style=&quot;margin:0 0 0 4px;line-height:1.6;&quot;&gt; id_card_no: &lt;/p&gt;&lt;hr size=&quot;1&quot;/&gt;&lt;p style=&quot;margin:0 0 0 4px;line-height:1.6;&quot;&gt; authenticate(self): &lt;/p&gt;" style="verticalAlign=top;align=left;overflow=fill;fontSize=14;fontFamily=Helvetica;html=1;rounded=0;shadow=0;comic=0;labelBackgroundColor=none;strokeWidth=1;" vertex="1" parent="1">
          <mxGeometry x="243" y="1560" width="238" height="100" as="geometry" />
        </mxCell>
        <mxCell id="MwLRmdAzHChFGPUT7Oti-5" value="&lt;p style=&quot;margin:0px;margin-top:4px;text-align:center;&quot;&gt;&lt;b&gt;voter.Voter&lt;/b&gt;&lt;/p&gt;&lt;hr size=&quot;1&quot;&gt;&lt;p style=&quot;margin:0 0 0 4px;line-height:1.6;&quot;&gt; _votes: &lt;br&gt; voter_id: &lt;br&gt; polling_station_name: &lt;br&gt; voter_name: &lt;br&gt; authentication_strategy:&lt;br&gt;&lt;/p&gt;&lt;hr size=&quot;1&quot;&gt;&lt;p style=&quot;margin:0 0 0 4px;line-height:1.6;&quot;&gt; __post_init__(self): &lt;br&gt; authenticate(self): &lt;br&gt; votes(self): &lt;br&gt; votes(self, votes): &lt;/p&gt;" style="verticalAlign=top;align=left;overflow=fill;fontSize=14;fontFamily=Helvetica;html=1;rounded=0;shadow=0;comic=0;labelBackgroundColor=none;strokeWidth=1;" vertex="1" parent="1">
          <mxGeometry x="631" y="1400" width="180" height="260" as="geometry" />
        </mxCell>
        <mxCell id="MwLRmdAzHChFGPUT7Oti-6" value="" style="html=1;rounded=1;edgeStyle=orthogonalEdgeStyle;dashed=0;startArrow=block;startSize=12;endArrow=none;strokeColor=#595959;exitX=0.5;exitY=0;exitDx=0;exitDy=0;entryX=0.500;entryY=1.001;entryDx=0;entryDy=0;" edge="1" parent="1" source="MwLRmdAzHChFGPUT7Oti-3" target="MwLRmdAzHChFGPUT7Oti-2">
          <mxGeometry width="50" height="50" relative="1" as="geometry">
            <Array as="points">
              <mxPoint x="63" y="1481" />
              <mxPoint x="230" y="1481" />
            </Array>
          </mxGeometry>
        </mxCell>
        <mxCell id="MwLRmdAzHChFGPUT7Oti-7" value="" style="html=1;rounded=1;edgeStyle=orthogonalEdgeStyle;dashed=0;startArrow=block;startSize=12;endArrow=none;strokeColor=#595959;entryX=0.500;entryY=1.001;entryDx=0;entryDy=0;exitX=0.5;exitY=0;exitDx=0;exitDy=0;" edge="1" parent="1" source="MwLRmdAzHChFGPUT7Oti-4" target="MwLRmdAzHChFGPUT7Oti-2">
          <mxGeometry width="50" height="50" relative="1" as="geometry">
            <Array as="points">
              <mxPoint x="362" y="1481" />
              <mxPoint x="230" y="1481" />
            </Array>
            <mxPoint x="360" y="1560" as="sourcePoint" />
          </mxGeometry>
        </mxCell>
      </root>
    </mxGraphModel>
  </diagram>
</mxfile>
